<?xml version="1.0" encoding="UTF-8"?>
<svg version="1.1" xmlns="http://www.w3.org/2000/svg" width="180" height="180">
<path d="M0 0 C2.375 1.5625 2.375 1.5625 4 4 C4.22384466 6.01460193 4.44486438 8.03015422 4.60546875 10.05078125 C5.2714177 13.34096466 7.5322762 14.86878399 10 17 C14.42400936 21.81725464 16.14014246 25.0878913 16.0625 31.6875 C16.05347656 32.68136719 16.04445313 33.67523438 16.03515625 34.69921875 C16.02355469 35.45847656 16.01195313 36.21773437 16 37 C16.89912109 37.37511719 16.89912109 37.37511719 17.81640625 37.7578125 C24.45378394 41.53363737 27.20456166 50.50728817 29.62890625 57.30078125 C31.2541699 60.50037437 33.15161312 61.87040667 36 64 C40.04404543 69.09850999 40.61146588 74.613591 40.39453125 80.9609375 C39.7096188 86.23679778 38.1119724 91.71949115 34.43359375 95.69140625 C32.16670395 99.34190182 32.20138313 103.21691817 31.875 107.4375 C31.72858211 109.12387449 31.58020088 110.81007986 31.4296875 112.49609375 C31.32648193 113.68924194 31.32648193 113.68924194 31.22119141 114.90649414 C31 117 31 117 30.453125 119.5234375 C29.74420215 123.39806757 29.85464569 127.25758252 29.875 131.1875 C29.8747583 132.03449463 29.8745166 132.88148926 29.87426758 133.75415039 C29.89966533 138.94076999 30.15479634 143.97265438 31.07421875 149.08984375 C30.96370526 151.93411206 29.99245877 152.99856388 28 155 C25.08911133 155.45410156 25.08911133 155.45410156 21.58203125 155.390625 C20.32841797 155.37773437 19.07480469 155.36484375 17.78320312 155.3515625 C15.81770508 155.30128906 15.81770508 155.30128906 13.8125 155.25 C12.4772399 155.22993307 11.14195117 155.21168262 9.80664062 155.1953125 C6.53703854 155.14809803 3.26887808 155.08225184 0 155 C-0.60546875 153.13671875 -0.60546875 153.13671875 -1 151 C1.31787009 147.99535358 3.2273236 146.53895377 7 146 C5.67776093 142.05383574 4.10789183 139.81287588 1.0625 137 C-1.84871679 134.19973703 -4.25724107 131.70336273 -6 128 C-6 127.34 -6 126.68 -6 126 C-6.928125 126.721875 -7.85625 127.44375 -8.8125 128.1875 C-9.33457031 128.59355469 -9.85664062 128.99960938 -10.39453125 129.41796875 C-14.98456513 133.94099483 -16.08139425 139.59247644 -17.4609375 145.6484375 C-18.96146819 151.79815344 -18.96146819 151.79815344 -22 154 C-24.71142578 154.35644531 -24.71142578 154.35644531 -27.9453125 154.328125 C-29.10417969 154.32296875 -30.26304688 154.3178125 -31.45703125 154.3125 C-32.66746094 154.291875 -33.87789062 154.27125 -35.125 154.25 C-36.95224609 154.24226563 -36.95224609 154.24226563 -38.81640625 154.234375 C-47.8461579 154.1538421 -47.8461579 154.1538421 -49 153 C-49.4375 150.6875 -49.4375 150.6875 -49 148 C-45.78534475 145.36982752 -43.02277756 143.87451686 -39 143 C-39.30975468 141.22868439 -39.62290425 139.45796222 -39.9375 137.6875 C-40.11152344 136.70136719 -40.28554688 135.71523437 -40.46484375 134.69921875 C-40.95746847 131.91810787 -40.95746847 131.91810787 -42 129 C-43.00394077 120.50952946 -41.02572839 114.43321992 -37 107 C-37.62390625 106.71640625 -38.2478125 106.4328125 -38.890625 106.140625 C-41.78766188 104.57407913 -42.64604098 102.97870985 -44 100 C-44.72972928 95.80405665 -43.97758758 93.59109565 -41.625 90.1875 C-40.10692397 88.17671508 -39.26854083 87.13427041 -37 86 C-36.56845773 83.25063695 -36.56845773 83.25063695 -36.4375 80.0625 C-36.09446694 74.18893387 -36.09446694 74.18893387 -35 72 C-36.36125 71.814375 -36.36125 71.814375 -37.75 71.625 C-40.58970323 71.07890323 -42.52590591 70.42736197 -45 69 C-46.175625 69.9590625 -46.175625 69.9590625 -47.375 70.9375 C-51.90656396 74.49801454 -55.37560832 74.49871453 -61 74 C-66.88130521 72.23560844 -69.55274552 69.8667122 -73 65 C-75.22259163 58.3322251 -74.90396849 50.25982337 -72.04296875 43.8125 C-68.8752469 38.30754517 -65.11617646 34.12193877 -59 32 C-53.00422155 31.20810473 -47.97869055 32.65915905 -43 36 C-39.12182525 40.31008284 -38 43.13458734 -38 49 C-33.38 45.7 -28.76 42.4 -24 39 C-25.4474175 34.97745619 -25.4474175 34.97745619 -27.8046875 34.3125 C-28.48789063 34.209375 -29.17109375 34.10625 -29.875 34 C-33.67643529 33.2203953 -35.59150826 32.1792091 -38 29 C-39.28317892 25.15046324 -39.06643637 22.05261865 -39 18 C-35.59391101 16.50132084 -32.40458232 15.11106181 -28.8125 14.125 C-25.83120558 13.21711237 -25.83120558 13.21711237 -24.1875 10.5625 C-21.80500382 7.7715759 -20.89871008 7.47026797 -17.5 6.5 C-13.24188954 5.28339701 -11.47770758 3.76611552 -9 0 C-5.81452856 -1.59273572 -3.39809153 -0.76164121 0 0 Z " fill="#0A241A" transform="translate(96,17)"/>
<path d="M0 0 C2.94756388 2.17188918 4.74906168 4.55991962 6 8 C6.125 10.75 6.125 10.75 6 13 C5.01 13.33 4.02 13.66 3 14 C3 14.66 3 15.32 3 16 C3.99 16.33 4.98 16.66 6 17 C4.63016497 20.16115776 4.0109362 20.9927092 1 23 C0.87625 23.78375 0.7525 24.5675 0.625 25.375 C0 28 0 28 -2.1875 30.3125 C-5.56278874 32.33767324 -7.13280305 32.72509943 -11 32 C-14.60837057 29.12970522 -16.85361792 26.48131176 -18 22 C-18.72047372 14.67518385 -16.93428618 10.08022042 -12.6796875 4.1640625 C-8.77675682 -0.37869288 -5.87660226 -0.94783907 0 0 Z " fill="#107249" transform="translate(47,55)"/>
<path d="M0 0 C2.125 0.375 2.125 0.375 4 1 C4.16955745 3.96725546 4.08322323 5.81043598 2.875 8.5625 C1.7009553 10.93343594 1.7009553 10.93343594 2.875 12.875 C3.24625 13.57625 3.6175 14.2775 4 15 C4.48672731 19.38054581 4.28491116 21.48715991 2.125 25.375 C-0.00596862 28.007373 -0.70800747 28.84516396 -3.98828125 29.23828125 C-9.63577181 29.41862128 -11.58922967 28.63888552 -16 25 C-18.35817723 24.63243823 -20.62616294 24.5008247 -23.01171875 24.46875 C-25 24 -25 24 -26.26953125 21.96875 C-26.51058594 21.3190625 -26.75164063 20.669375 -27 20 C-26.34 20 -25.68 20 -25 20 C-25 18.35 -25 16.7 -25 15 C-24.38511719 14.84144531 -23.77023438 14.68289062 -23.13671875 14.51953125 C-20.66391486 13.80569153 -18.33962488 13.07690315 -16 12 C-15.525625 11.13375 -15.05125 10.2675 -14.5625 9.375 C-13 7 -13 7 -10.609375 6.45703125 C-8.067001 6.21202593 -5.55316782 6.05269202 -3 6 C-2.87625 5.38125 -2.7525 4.7625 -2.625 4.125 C-2 2 -2 2 0 0 Z " fill="#CFAA85" transform="translate(90,22)"/>
<path d="M0 0 C4.23429756 1.31061591 8.07407404 2.94356259 12 5 C12.65063955 8.1881338 12.81617549 10.83102232 12 14 C8.04483772 18.16959879 3.08144033 20.76857694 -2.3125 22.625 C-6.12972501 23.75751132 -6.12972501 23.75751132 -8.6875 26.6875 C-11 29 -11 29 -13.8125 29.3125 C-14.534375 29.209375 -15.25625 29.10625 -16 29 C-16.33 27.35 -16.66 25.7 -17 24 C-17.66 24 -18.32 24 -19 24 C-19.33 24.99 -19.66 25.98 -20 27 C-22 25 -22 25 -22.4375 22.6875 C-21.47223695 16.758027 -14.78511145 13.21689974 -10.2890625 9.7734375 C-4.37376253 5.56635881 -4.37376253 5.56635881 0 0 Z " fill="#D4AC85" transform="translate(79,92)"/>
<path d="M0 0 C3.5386994 1.65139305 4.81070153 2.71605229 7 6 C7.1953125 8.26171875 7.1953125 8.26171875 7.125 10.6875 C7.10695313 11.49574219 7.08890625 12.30398437 7.0703125 13.13671875 C7.04710938 13.75160156 7.02390625 14.36648437 7 15 C5.783125 15.4125 4.56625 15.825 3.3125 16.25 C-1.70989299 18.13450852 -4.997576 20.49636401 -8 25 C-12.84659077 24.40895235 -16.60748167 23.02055843 -21 21 C-20.71838037 14.38193863 -18.11634393 10.11574473 -14 5 C-9.22295212 0.6572292 -6.50367312 -0.44092699 0 0 Z " fill="#D4AC86" transform="translate(105,59)"/>
<path d="M0 0 C4.36729181 0.38461247 8.2784736 2.23310085 12.26953125 3.94140625 C12.95053391 4.22853989 13.63153656 4.51567352 14.33317566 4.81150818 C16.4948362 5.72412034 18.65367581 6.6432013 20.8125 7.5625 C22.28302128 8.18467475 23.75372259 8.8064242 25.22460938 9.42773438 C28.81850919 10.94690673 32.40989431 12.47188423 36 14 C35.67 15.32 35.34 16.64 35 18 C30.73058929 17.42133149 27.12543909 16.39736392 23.1640625 14.71484375 C22.10058594 14.26689453 21.03710938 13.81894531 19.94140625 13.35742188 C18.84699219 12.88884766 17.75257812 12.42027344 16.625 11.9375 C15.50738281 11.46505859 14.38976562 10.99261719 13.23828125 10.50585938 C10.48968515 9.3429918 7.74376168 8.17421814 5 7 C5 7.99 5 8.98 5 10 C2.625 10.125 2.625 10.125 0 10 C-2 8 -2 8 -2.25 5 C-2 2 -2 2 0 0 Z " fill="#CDA781" transform="translate(58,74)"/>
<path d="M0 0 C3.1875 0.4375 3.1875 0.4375 5.5625 3.4375 C6.09875 4.4275 6.635 5.4175 7.1875 6.4375 C6.5275 6.4375 5.8675 6.4375 5.1875 6.4375 C5.1875 7.0975 5.1875 7.7575 5.1875 8.4375 C6.1775 8.7675 7.1675 9.0975 8.1875 9.4375 C6.81766497 12.59865776 6.1984362 13.4302092 3.1875 15.4375 C3.1875 16.0975 3.1875 16.7575 3.1875 17.4375 C-3.08522727 18.88505245 -3.08522727 18.88505245 -6.25 16.9375 C-8.40777688 13.485057 -8.36607317 11.45090549 -7.8125 7.4375 C-3.89022255 0.60514573 -3.89022255 0.60514573 0 0 Z M7.1875 0.4375 C7.5175 0.4375 7.8475 0.4375 8.1875 0.4375 C8.1875 2.0875 8.1875 3.7375 8.1875 5.4375 C7.8575 5.4375 7.5275 5.4375 7.1875 5.4375 C7.1875 3.7875 7.1875 2.1375 7.1875 0.4375 Z " fill="#09251B" transform="translate(44.8125,62.5625)"/>
<path d="M0 0 C-0.515625 0.37125 -1.03125 0.7425 -1.5625 1.125 C-2.366875 1.74375 -3.17125 2.3625 -4 3 C-4.81597656 3.56847656 -4.81597656 3.56847656 -5.6484375 4.1484375 C-11.20412295 8.34552738 -14.23112918 13.26713585 -16 20 C-16.53198303 25.33117587 -16.30145 30.66098557 -16 36 C-19 35 -19 35 -20.65625 32.82421875 C-23.4171269 27.02156177 -22.9846813 20.20349649 -21.12109375 14.140625 C-16.56863374 4.22437548 -10.65199166 -0.17180632 0 0 Z " fill="#107048" transform="translate(122,80)"/>
<path d="M0 0 C2.95662966 0.22743305 4.55033688 0.61235938 6.8125 2.5625 C7.204375 3.036875 7.59625 3.51125 8 4 C7.67 4.66 7.34 5.32 7 6 C6.01 6 5.02 6 4 6 C4 7.32 4 8.64 4 10 C-0.875 9.125 -0.875 9.125 -2 8 C-2.1875 5.0625 -2.1875 5.0625 -2 2 C-1.34 1.34 -0.68 0.68 0 0 Z " fill="#D8B089" transform="translate(58,74)"/>
<path d="M0 0 C4.3890815 0.51035831 7.33708062 1.52214277 11 4 C10.67 5.32 10.34 6.64 10 8 C5.6109185 7.48964169 2.66291938 6.47785723 -1 4 C-0.67 2.68 -0.34 1.36 0 0 Z " fill="#106F48" transform="translate(117,98)"/>
<path d="M0 0 C5.53846154 0.61538462 5.53846154 0.61538462 7.875 2.5625 C8.431875 3.2740625 8.431875 3.2740625 9 4 C8.01 5.485 8.01 5.485 7 7 C3.62537285 6.45276317 1.91765 5.9451 -1 4 C-0.67 2.68 -0.34 1.36 0 0 Z " fill="#EAEBEB" transform="translate(44,69)"/>
<path d="M0 0 C4.455 0.99 4.455 0.99 9 2 C8.01 2.495 8.01 2.495 7 3 C7 3.66 7 4.32 7 5 C5.25 5.6875 5.25 5.6875 3 6 C0.75 4.5625 0.75 4.5625 -1 3 C-0.67 2.01 -0.34 1.02 0 0 Z " fill="#172B1F" transform="translate(84,90)"/>
</svg>
